:SAMPLES-PER-SECOND 30
:FULLY-SPECIFIED
:DEGREES
84
root  -34.6959 39.6245 22.4066 178.318 -57.194 174.399
RightUpLeg  -20.1072 -6.66202 -4.34265
RightLeg  39.9262 3.86955 3.17514
RightFoot  -2.6865 -0.712132 9.14919
RightToes  5.23868e-010 0 -3.6325e-017
Spine  9.69601 -1.26782 -5.90709
Spine1  5.05986 -2.93288 3.51327
HEad  -7.39938 20.7912 -6.00962
LeftShoulder1  -0.4572 4.77997 -29.6346
LeftArm  -9.99685 6.1178 -38.7297
LeftForeArm  22.7352 -16.5623 -4.08368
LeftHand  -0.00656241 4.15128 -1.50627
RightShoulder  -0.614845 -5.41702 25.3959
RightArm  4.94154 -6.51569 30.3314
RightForeArm  43.8129 75.8302 47.2023
RightHand  -0.319847 3.53443 -4.40718
LeftUpLeg  3.78882 8.52109 0.189055
LeftLeg  16.2161 2.40761 0.347816
LeftFoot  -12.5462 0.09391 1.77335
LeftToes  -4.9204e-010 1.02043e-011 -1.81609e-011
85
root  -35.5062 39.6516 22.0966 178.601 -56.4014 175.062
RightUpLeg  -19.9377 -8.44782 -3.1725
RightLeg  27.9715 5.22818 2.73854
RightFoot  -2.83938 -0.692034 9.03089
RightToes  5.23868e-010 0 -3.6325e-017
Spine  9.26156 -1.37845 -5.29249
Spine1  4.69072 -2.65944 2.8572
HEad  -8.88673 21.0519 -6.21202
LeftShoulder1  -0.374923 4.56994 -29.0079
LeftArm  -9.21193 5.94529 -38.927
LeftForeArm  21.9889 -18.5198 -3.90012
LeftHand  -0.00246572 3.9463 -1.88569
RightShoulder  -0.676657 -5.55303 26.3449
RightArm  14.8338 -3.43214 34.4922
RightForeArm  19.164 59.7948 17.5525
RightHand  -0.262954 3.15273 -3.88662
LeftUpLeg  5.1115 8.66551 0.434836
LeftLeg  14.8074 2.99464 0.12499
LeftFoot  -13.3041 0.110056 1.77462
LeftToes  -4.9204e-010 1.02043e-011 -1.81609e-011
86
root  -36.3204 39.6619 21.7276 178.951 -56.1682 175.234
RightUpLeg  -18.4953 -8.83326 -2.7349
RightLeg  15.08 5.29628 1.67142
RightFoot  -2.6496 -0.689346 8.82235
RightToes  5.23868e-010 0 -3.6325e-017
Spine  8.95416 -1.14444 -4.87977
Spine1  4.83445 -2.32824 3.08195
HEad  -10.1699 20.2781 -6.1243
LeftShoulder1  -0.456775 4.77148 -29.8705
LeftArm  -7.68824 4.34765 -38.6819
LeftForeArm  20.9361 -19.8897 -3.91553
LeftHand  -0.00208067 3.14773 -0.695881
RightShoulder  -0.607082 -5.32684 26.586
RightArm  24.1713 -1.72317 39.1288
RightForeArm  14.3994 41.7132 8.70137
RightHand  -0.206422 4.82434 -2.56012
LeftUpLeg  7.03577 8.70963 0.591242
LeftLeg  12.9918 3.21055 -0.242195
LeftFoot  -14.0167 0.120892 1.56843
LeftToes  -4.9204e-010 1.02043e-011 -1.81609e-011
87
root  -37.1333 39.647 21.3018 179.918 -56.52 175.181
RightUpLeg  -17.2363 -6.00643 -3.44516
RightLeg  3.34972 2.39508 0.510882
RightFoot  -2.66479 -0.589076 7.47934
RightToes  5.23868e-010 0 -3.6325e-017
Spine  8.3652 -0.855643 -3.79895
Spine1  5.01683 -1.8323 2.91904
HEad  -11.5291 18.3415 -6.39685
LeftShoulder1  -0.512942 4.91065 -30.311
LeftArm  -6.29167 3.11606 -39.5331
LeftForeArm  19.5842 -21.3333 -3.8991
LeftHand  -0.0294086 3.19931 -0.233296
RightShoulder  -0.605248 -5.26693 27.5603
RightArm  30.1949 -1.35068 42.813
RightForeArm  14.9575 25.1376 5.55254
RightHand  -0.0436932 2.24803 -0.887321
LeftUpLeg  8.42286 8.60112 0.621909
LeftLeg  11.2322 2.86345 -0.573361
LeftFoot  -14.5548 0.13034 1.52772
LeftToes  -4.9204e-010 1.02043e-011 -1.81609e-011
88
root  -37.9928 39.5206 20.7672 -179.441 -57.6941 174.714
RightUpLeg  -16.1525 -5.92428 -3.94068
RightLeg  -3.7137 2.09493 -0.132257
RightFoot  -3.80012 -0.440804 6.41565
RightToes  5.23868e-010 0 -3.6325e-017
Spine  8.55448 -0.618086 -2.48632
Spine1  5.01906 -1.34705 2.23133
HEad  -12.6534 16.0929 -7.35727
LeftShoulder1  -0.467187 4.7917 -30.1261
LeftArm  -5.03174 2.49468 -41.0926
LeftForeArm  18.0884 -22.6589 -4.05039
LeftHand  -0.115366 1.93593 3.78177
RightShoulder  -0.750538 -5.59577 29.2145
RightArm  21.5424 -3.06361 44.738
RightForeArm  24.5994 11.1819 6.87472
RightHand  -0.0367747 0.308011 -0.831739
LeftUpLeg  10.145 8.67564 0.877237
LeftLeg  10.6034 1.35511 -0.875725
LeftFoot  -15.6677 0.147847 1.42965
LeftToes  -4.9204e-010 1.02043e-011 -1.81609e-011
89
root  -38.8776 39.2608 20.1474 -178.531 -59.1017 174.001
RightUpLeg  -16.4726 -6.66991 -4.50383
RightLeg  -3.77135 1.47142 0.29789
RightFoot  -5.04096 -0.490125 8.19986
RightToes  5.23868e-010 0 -3.6325e-017
Spine  8.59964 -0.629639 -1.73102
Spine1  5.19154 -1.23356 1.89793
HEad  -14.5374 14.7113 -8.95066
LeftShoulder1  -0.516425 4.91929 -30.3302
LeftArm  -5.48201 2.72741 -42.1724
LeftForeArm  19.0829 -25.3778 -4.41174
LeftHand  -0.0757225 1.92765 2.25491
RightShoulder  -0.866392 -5.84593 30.3941
RightArm  7.72107 -6.89921 45.6719
RightForeArm  30.2946 2.65875 4.87969
RightHand  -0.0554245 -1.35129 -1.36315
LeftUpLeg  11.0992 8.82087 1.15656
LeftLeg  11.6588 -0.447535 -0.940607
LeftFoot  -17.6766 0.167243 1.10936
LeftToes  -4.9204e-010 1.02043e-011 -1.81609e-011
90
root  -39.7876 39.098 19.4884 -179.721 -60.3885 175.503
RightUpLeg  -17.5269 -6.4295 -3.76121
RightLeg  1.11136 -0.417335 0.535711
RightFoot  -1.60712 -0.408941 4.99269
RightToes  5.23868e-010 0 -3.6325e-017
Spine  8.87779 -0.910032 0.213023
Spine1  5.58878 -1.49583 2.04337
HEad  -16.5962 14.9119 -10.6374
LeftShoulder1  -0.603086 5.14204 -30.6708
LeftArm  -5.58545 4.14529 -42.9252
LeftForeArm  21.58 -27.8252 -4.83431
LeftHand  -0.0789585 1.58449 1.99925
RightShoulder  -0.894714 -5.90637 30.6339
RightArm  3.17594 -12.0836 46.0827
RightForeArm  23.5756 0.619939 2.58981
RightHand  -0.050135 -0.858056 -1.07116
LeftUpLeg  12.5122 8.74751 2.47985
LeftLeg  12.1997 -1.82078 -0.446681
LeftFoot  -19.2115 0.145145 0.429912
LeftToes  -4.9204e-010 1.02043e-011 -1.81609e-011
91
root  -40.7205 39.0252 18.7609 178.027 -61.9896 177.972
RightUpLeg  -18.4351 -6.4767 -2.63133
RightLeg  5.74267 -2.14421 0.717903
RightFoot  3.53039 -0.0960336 0.755901
RightToes  5.23868e-010 0 -3.6325e-017
Spine  9.18888 -1.3165 2.33054
Spine1  5.93944 -1.99819 2.85316
HEad  -17.251 14.5941 -11.4768
LeftShoulder1  -0.675978 5.29221 -31.5989
LeftArm  -4.96791 5.82565 -42.6915
LeftForeArm  23.6907 -29.9837 -5.21138
LeftHand  -0.0396395 2.96205 0.878814
RightShoulder  -0.980165 -6.12379 30.8362
RightArm  3.53427 -17.6026 44.6451
RightForeArm  18.7081 3.7596 2.63221
RightHand  0.0295072 -1.30079 1.0382
LeftUpLeg  14.0435 7.26577 4.00133
LeftLeg  12.7103 -2.45347 0.211674
LeftFoot  -19.9585 0.0317153 -1.15441
LeftToes  -4.9204e-010 1.02043e-011 -1.81609e-011
92
root  -41.6886 38.8945 17.9224 175.579 -62.9759 -179.613
RightUpLeg  -18.7293 -7.13304 -1.39467
RightLeg  10.1961 -1.11097 0.654551
RightFoot  6.28089 -0.155766 1.28759
RightToes  5.23868e-010 0 -3.6325e-017
Spine  9.52279 -1.69716 3.91382
Spine1  5.91689 -2.31361 3.17751
HEad  -17.249 15.2955 -11.7059
LeftShoulder1  -0.854917 5.71579 -32.5056
LeftArm  -3.40596 7.54482 -42.4151
LeftForeArm  22.73 -29.9826 -5.26763
LeftHand  -0.10988 1.71247 3.31444
RightShoulder  -1.06778 -6.34197 31.0672
RightArm  6.47268 -21.435 42.995
RightForeArm  17.397 7.41526 3.72798
RightHand  -0.00497329 -0.511786 -0.0938488
LeftUpLeg  14.7802 4.22773 5.18001
LeftLeg  15.614 -1.37647 0.451209
LeftFoot  -20.5042 -0.215458 -4.19875
LeftToes  -4.9204e-010 1.02043e-011 -1.81609e-011
93
root  -42.6409 38.7494 17.1212 172.896 -62.7881 -177.22
RightUpLeg  -19.172 -9.13163 0.498511
RightLeg  15.793 1.47069 0.798989
RightFoot  4.31337 -0.0268059 0.39158
RightToes  5.23868e-010 0 -3.6325e-017
Spine  10.0304 -2.03 6.50059
Spine1  6.03568 -2.05355 2.06845
HEad  -16.5694 15.9274 -11.6347
LeftShoulder1  -0.895331 5.83102 -32.2988
LeftArm  -1.40398 8.90563 -42.8413
LeftForeArm  21.8941 -27.436 -4.7055
LeftHand  -0.0696188 1.9237 2.06619
RightShoulder  -1.13994 -6.50335 31.4674
RightArm  9.21538 -23.3058 41.9544
RightForeArm  20.7104 10.0138 4.50891
RightHand  -0.00317674 0.535908 -0.145529
LeftUpLeg  14.5623 1.80183 6.58836
LeftLeg  21.0904 -0.613551 -0.00354022
LeftFoot  -20.2345 -0.506478 -8.09948
LeftToes  -4.9204e-010 1.02043e-011 -1.81609e-011
94
root  -43.4958 38.664 16.3496 170.341 -63.0451 -174.414
RightUpLeg  -19.1747 -10.9832 2.28874
RightLeg  19.4819 2.73327 1.21868
RightFoot  2.4509 0.19201 -1.43247
RightToes  5.23868e-010 0 -3.6325e-017
Spine  9.74027 -2.46985 8.5491
Spine1  6.80123 -2.17457 2.26723
HEad  -15.3121 16.3207 -11.2078
LeftShoulder1  -0.949926 5.94591 -32.7279
LeftArm  0.475176 9.47773 -42.8979
LeftForeArm  20.3523 -23.7712 -4.1531
LeftHand  -0.0462172 2.49212 1.09033
RightShoulder  -1.11819 -6.45033 31.3944
RightArm  9.93196 -22.8738 41.9132
RightForeArm  22.6715 10.0817 4.70176
RightHand  -0.0670746 -0.654977 -1.57061
LeftUpLeg  11.9001 0.453113 8.48069
LeftLeg  29.1684 -1.28971 -0.433023
LeftFoot  -17.4693 -0.555705 -12.8586
LeftToes  -4.9204e-010 1.02043e-011 -1.81609e-011
